<svg width="64" height="64" xmlns="http://www.w3.org/2000/svg">

 <g>
  <title>background</title>
  <rect fill="none" id="canvas_background" height="402" width="582" y="-1" x="-1"/>
 </g>
 <g>
  <title>Layer 1</title>
  <circle id="svg_2" r="32" fill="#235b90" cy="32" cx="32"/>
  <path opacity="0.2" id="svg_5" fill="#231F20" d="m28.962,25.343c-0.417,-4.794 -5.418,-7.146 -5.63,-7.242c-0.199,-0.094 -0.421,-0.122 -0.635,-0.085c-5.774,0.958 -6.642,4.318 -6.677,4.458c-0.048,0.196 -0.039,0.399 0.022,0.589c6.886,21.366 21.198,25.327 25.903,26.63c0.362,0.1 0.661,0.181 0.888,0.255c0.11,0.037 0.223,0.052 0.336,0.052c0.155,0 0.31,-0.033 0.452,-0.098c0.144,-0.065 3.544,-1.667 4.375,-6.891c0.037,-0.227 0,-0.463 -0.105,-0.668c-0.074,-0.144 -1.853,-3.528 -6.784,-4.724c-0.345,-0.089 -0.698,0.002 -0.964,0.229c-1.556,1.329 -3.705,2.745 -4.632,2.891c-6.217,-3.04 -9.688,-8.872 -9.819,-9.978c-0.076,-0.622 1.348,-2.806 2.987,-4.582c0.207,-0.225 0.312,-0.53 0.283,-0.836z"/>
  <path id="svg_8" fill="#FFFFFF" d="m28.962,23.343c-0.417,-4.794 -5.418,-7.146 -5.63,-7.242c-0.199,-0.094 -0.421,-0.122 -0.635,-0.085c-5.774,0.958 -6.642,4.318 -6.677,4.458c-0.048,0.196 -0.039,0.399 0.022,0.589c6.886,21.366 21.198,25.327 25.903,26.63c0.362,0.1 0.661,0.181 0.888,0.255c0.11,0.037 0.223,0.052 0.336,0.052c0.155,0 0.31,-0.033 0.452,-0.098c0.144,-0.065 3.544,-1.667 4.375,-6.891c0.037,-0.227 0,-0.463 -0.105,-0.668c-0.074,-0.144 -1.853,-3.528 -6.784,-4.724c-0.345,-0.089 -0.698,0.002 -0.964,0.229c-1.556,1.329 -3.705,2.745 -4.632,2.891c-6.217,-3.04 -9.688,-8.872 -9.819,-9.978c-0.076,-0.622 1.348,-2.806 2.987,-4.582c0.207,-0.225 0.312,-0.53 0.283,-0.836z"/>
 </g>
</svg>