<svg xmlns="http://www.w3.org/2000/svg" xmlns:xlink="http://www.w3.org/1999/xlink" viewBox="0 0 165.95 156.64"><defs><style>.cls-1{isolation:isolate;}.cls-2{fill:#011843;}.cls-3{fill:none;}.cls-4{mix-blend-mode:screen;fill:url(#linear-gradient);}.cls-5,.cls-7{fill:#231f20;mix-blend-mode:multiply;}.cls-6{fill:#235b90;}.cls-7{opacity:0.6;}.cls-8{fill:#60c8d3;}</style><linearGradient id="linear-gradient" x1="90.7" y1="115.04" x2="169.7" y2="-65.96" gradientUnits="userSpaceOnUse"><stop offset="0" stop-color="#fff" stop-opacity="0"/><stop offset="0.15" stop-color="#f8fafb" stop-opacity="0.03"/><stop offset="0.32" stop-color="#e4ebf1" stop-opacity="0.12"/><stop offset="0.5" stop-color="#c2d1e0" stop-opacity="0.28"/><stop offset="0.68" stop-color="#92aec8" stop-opacity="0.49"/><stop offset="0.87" stop-color="#5681aa" stop-opacity="0.77"/><stop offset="1" stop-color="#235b90"/></linearGradient></defs><g class="cls-1"><g id="Layer_2" data-name="Layer 2"><g id="Capa_1" data-name="Capa 1"><path class="cls-2" d="M166,45.47A101,101,0,0,1,102,139.41C69.07,134.63,75.19,26.63,75.19,26.63a21.16,21.16,0,0,0,15.71-9l.27-.38a41.18,41.18,0,0,1,60.32-7.35,42.07,42.07,0,0,1,6.19,6.6,41.13,41.13,0,0,1,7.71,18.29c.24,2.21.41,4.44.49,6.69v.22C165.93,43,166,44.21,166,45.47Z"/><path class="cls-3" d="M75.18,26.63l-.31,0c-.75-1-1.55-1.95-2.38-2.86Z"/><path class="cls-3" d="M1.46,62.75c-.24-.17-.47-.35-.7-.53Q.39,59.16.21,56.05A42.15,42.15,0,0,0,1.46,62.75Z"/><path class="cls-3" d="M75.18,26.63l-.31,0c-.75-1-1.55-1.95-2.38-2.86Z"/><path class="cls-3" d="M.19,55.76c-.13-1.31-.19-2.63-.19-4,0-.41,0-.83,0-1.24C0,52.3.09,54,.19,55.76Z"/><path class="cls-3" d="M1.46,62.75c-.24-.17-.47-.35-.7-.53Q.39,59.16.21,56.05A42.15,42.15,0,0,0,1.46,62.75Z"/><path class="cls-3" d="M75.18,26.63l-.31,0c-.75-1-1.55-1.95-2.38-2.86Z"/><path class="cls-3" d="M.19,55.76c-.13-1.31-.19-2.63-.19-4,0-.41,0-.83,0-1.24C0,52.3.09,54,.19,55.76Z"/><path class="cls-4" d="M166,45.47A101,101,0,0,1,102,139.41C69.07,134.63,75.19,26.63,75.19,26.63a21.16,21.16,0,0,0,15.71-9l.27-.38a41.18,41.18,0,0,1,60.32-7.35,42.07,42.07,0,0,1,6.19,6.6,41.13,41.13,0,0,1,7.71,18.29c.24,2.21.41,4.44.49,6.69v.22C165.93,43,166,44.21,166,45.47Z"/><path class="cls-3" d="M75.18,26.63l-.31,0c-.75-1-1.55-1.95-2.38-2.86Z"/><path class="cls-3" d="M.19,55.76c-.13-1.31-.19-2.63-.19-4,0-.41,0-.83,0-1.24C0,52.3.09,54,.19,55.76Z"/><line class="cls-3" x1="75.18" y1="26.63" x2="72.49" y2="23.79"/><path class="cls-5" d="M105.14,123.16c-1.26.91-5.45,4-7.3,4.17-.08-1.46-4.74-4.82-4.77-6.29,10.05-7.61-17.89-94.41-17.89-94.41a21.6,21.6,0,0,0,2.56-.36l7.92,8.2,21.12,21.87a44.37,44.37,0,0,1,9.36,13,45.7,45.7,0,0,1,3.77,12.18,49.2,49.2,0,0,1,.57,5.88A45.13,45.13,0,0,1,105.14,123.16Z"/><path class="cls-6" d="M116.85,87.13a41.62,41.62,0,0,1-16.55,33.24C82.44,131.67,4.76,70,.76,62.22Q.39,59.16.21,56.05a2.83,2.83,0,0,0,0-.29C.09,54,0,52.3,0,50.55v-.09A41.65,41.65,0,0,1,72.4,23.69l2.79,2.94,8.67,9.15,20.36,21.47a41.51,41.51,0,0,1,6.3,7.79,41.06,41.06,0,0,1,2.61,4.85,41.55,41.55,0,0,1,3.35,11.66A42.86,42.86,0,0,1,116.85,87.13Z"/><path class="cls-7" d="M76.6,56.26A22.64,22.64,0,1,1,54,33.63,22.64,22.64,0,0,1,76.6,56.26Z"/><path class="cls-8" d="M73.42,54.46A21.26,21.26,0,1,1,52.16,33.2,21.26,21.26,0,0,1,73.42,54.46Z"/><path class="cls-7" d="M111.91,134.86a96.61,96.61,0,0,1-9.91,4.55c-5.56-5.29-13.89-42.71,5.6-66.55A142,142,0,0,0,106,94.33,140.49,140.49,0,0,0,111.91,134.86Z"/><path class="cls-8" d="M106,77.88a138.37,138.37,0,0,0-5.73,39.54c0,1,0,2,0,3a138.76,138.76,0,0,0,1.7,19,136.29,136.29,0,0,0,3.9,17.23,106.51,106.51,0,0,1-44.66-10.32A107.3,107.3,0,0,1,.76,62.22c.23.18.46.36.7.53A100,100,0,0,0,34.27,79.36a100.52,100.52,0,0,0,28.36,4q3.21,0,6.38-.2a100.49,100.49,0,0,0,32.89-7.72q2.89-1.23,5.7-2.63Q106.75,75.35,106,77.88Z"/></g></g></g></svg>