<svg xmlns="http://www.w3.org/2000/svg" viewBox="0 0 410.85 47.68"><defs><style>.cls-1{fill:#60c8d3;}.cls-2{fill:#235b90;}</style></defs><g id="Layer_2" data-name="Layer 2"><g id="Capa_1" data-name="Capa 1"><path class="cls-1" d="M0,46.87V.79H9.31V46.87Z"/><path class="cls-1" d="M18.27,46.87V.79h9L46.17,31.56V.79h8.65V46.87H45.48L26.91,16.81V46.87Z"/><path class="cls-1" d="M76.41,46.87,59.94.79H70l11.66,34.1L93,.79h9.86L86.34,46.87Z"/><path class="cls-1" d="M107.59,46.87V.79h34.17V8.58H116.9V18.8H140v7.76H116.9V39.1h25.74v7.77Z"/><path class="cls-1" d="M150.56,46.87V.79h19.58c4.92,0,8.51.41,10.74,1.24a10.55,10.55,0,0,1,5.35,4.41,13.22,13.22,0,0,1,2,7.26,12.32,12.32,0,0,1-3.05,8.57q-3,3.38-9.12,4.26a21.73,21.73,0,0,1,5,3.86,52.52,52.52,0,0,1,5.3,7.49l5.63,9H180.86l-6.73-10a65.85,65.85,0,0,0-4.9-6.78,7.05,7.05,0,0,0-2.8-1.91,15.13,15.13,0,0,0-4.68-.52h-1.89V46.87Zm9.3-26.6h6.89q6.69,0,8.36-.56a5,5,0,0,0,2.61-1.95,6.05,6.05,0,0,0,.94-3.46,5.49,5.49,0,0,0-1.24-3.75,5.68,5.68,0,0,0-3.51-1.81q-1.12-.16-6.79-.16h-7.26Z"/><path class="cls-2" d="M194.66,31.87l9.05-.88c.55,3,1.65,5.27,3.32,6.7a10,10,0,0,0,6.74,2.14c3,0,5.25-.64,6.77-1.91a5.64,5.64,0,0,0,2.28-4.44,4.22,4.22,0,0,0-1-2.79,7.58,7.58,0,0,0-3.34-2c-1.09-.38-3.58-1.05-7.45-2q-7.48-1.86-10.5-4.56a12,12,0,0,1-4.25-9.27,11.86,11.86,0,0,1,2-6.59,12.54,12.54,0,0,1,5.75-4.67A23.07,23.07,0,0,1,213.14,0q8.67,0,13.06,3.8A13.46,13.46,0,0,1,230.81,14l-9.31.4a7.91,7.91,0,0,0-2.56-5.1q-2-1.56-5.89-1.56a10.62,10.62,0,0,0-6.35,1.67,3.34,3.34,0,0,0-1.48,2.86A3.52,3.52,0,0,0,206.6,15q1.77,1.49,8.55,3.09a44.56,44.56,0,0,1,10,3.31,12.9,12.9,0,0,1,5.1,4.68,13.76,13.76,0,0,1,1.84,7.34,13.55,13.55,0,0,1-2.21,7.42A13.12,13.12,0,0,1,223.7,46a26.1,26.1,0,0,1-10,1.68q-8.73,0-13.42-4T194.66,31.87Z"/><path class="cls-2" d="M281.51,46.87H271.38l-4-10.47H248.94l-3.8,10.47h-9.87L253.22.79h9.84ZM264.37,28.63,258,11.54,251.8,28.63Z"/><path class="cls-2" d="M286.69,46.87V1.16H296V39.1h23.13v7.77Z"/><path class="cls-2" d="M325.7.79H335v25a51.58,51.58,0,0,0,.35,7.7A7.43,7.43,0,0,0,338.19,38a9.88,9.88,0,0,0,6.15,1.72q4,0,6-1.62a6.4,6.4,0,0,0,2.42-4,52.06,52.06,0,0,0,.41-7.82V.79h9.3V25a62.48,62.48,0,0,1-.75,11.72,13,13,0,0,1-2.78,5.79,14.08,14.08,0,0,1-5.43,3.75,23.59,23.59,0,0,1-8.86,1.4q-6.6,0-10-1.52a14.34,14.34,0,0,1-5.39-4,12.77,12.77,0,0,1-2.61-5.11,55.82,55.82,0,0,1-.91-11.69Z"/><path class="cls-2" d="M372.22.79h17a33.54,33.54,0,0,1,8.77.87,15.52,15.52,0,0,1,6.95,4.25,20.11,20.11,0,0,1,4.4,7.47,34.13,34.13,0,0,1,1.51,10.89,30,30,0,0,1-1.42,9.8,20.24,20.24,0,0,1-4.93,8.14A16.4,16.4,0,0,1,398,45.89a28.09,28.09,0,0,1-8.23,1H372.22Zm9.3,7.79V39.1h7a24.86,24.86,0,0,0,5.62-.44,8.7,8.7,0,0,0,3.76-1.91,9.9,9.9,0,0,0,2.44-4.45,30.07,30.07,0,0,0,.94-8.44,27.57,27.57,0,0,0-.94-8.21,10.61,10.61,0,0,0-2.64-4.46A8.87,8.87,0,0,0,393.34,9a42.57,42.57,0,0,0-7.64-.44Z"/></g></g></svg>