<?xml version="1.0" standalone="no"?>
<!DOCTYPE svg PUBLIC "-//W3C//DTD SVG 20010904//EN"
 "http://www.w3.org/TR/2001/REC-SVG-20010904/DTD/svg10.dtd">
<svg version="1.0" xmlns="http://www.w3.org/2000/svg"
 width="167.000000pt" height="167.000000pt" viewBox="0 0 167.000000 167.000000"
 preserveAspectRatio="xMidYMid meet">
<metadata>
Created by potrace 1.11, written by Peter Selinger 2001-2013
</metadata>
<g transform="translate(0.000000,167.000000) scale(0.100000,-0.100000)"
fill="#000000" stroke="none">
<path d="M1197 1618 c-105 -12 -169 -47 -267 -149 -64 -65 -96 -90 -127 -99
l-43 -13 -50 47 c-143 134 -368 154 -525 46 -126 -86 -185 -211 -179 -375 15
-428 298 -810 709 -958 107 -38 345 -78 345 -58 0 3 -7 33 -15 66 -23 95 -22
97 43 129 349 170 572 521 574 901 1 157 -25 240 -102 328 -93 105 -217 152
-363 135z"/>
</g>
</svg>
